<mxfile host="app.diagrams.net" modified="2021-12-11T10:22:28.471Z" agent="5.0 (Windows NT 10.0; Win64; x64) AppleWebKit/537.36 (KHTML, like Gecko) Chrome/96.0.4664.93 Safari/537.36" etag="C6HaokaUi5MAPNTP8pdj" version="15.9.4" type="github">
  <diagram name="Page-1" id="74e2e168-ea6b-b213-b513-2b3c1d86103e">
    <mxGraphModel dx="1178" dy="1578" grid="1" gridSize="10" guides="1" tooltips="1" connect="1" arrows="1" fold="1" page="1" pageScale="1" pageWidth="1100" pageHeight="850" background="none" math="0" shadow="0">
      <root>
        <mxCell id="0" />
        <mxCell id="1" parent="0" />
        <mxCell id="77e6c97f196da883-1" value="Pool" style="swimlane;html=1;childLayout=stackLayout;startSize=20;rounded=0;shadow=0;labelBackgroundColor=none;strokeWidth=1;fontFamily=Verdana;fontSize=8;align=center;swimlaneLine=1;glass=0;separatorColor=#E6E6E6;whiteSpace=wrap;" parent="1" vertex="1">
          <mxGeometry x="70" y="-30" width="2900" height="840" as="geometry" />
        </mxCell>
        <mxCell id="WGGpqB69vOt5ms05KSNj-37" value="Test Setup" style="swimlane;html=1;startSize=20;" parent="77e6c97f196da883-1" vertex="1">
          <mxGeometry y="20" width="160" height="820" as="geometry" />
        </mxCell>
        <mxCell id="WGGpqB69vOt5ms05KSNj-38" value="Test finito = 0" style="rounded=1;whiteSpace=wrap;html=1;shadow=0;labelBackgroundColor=none;strokeWidth=1;fontFamily=Verdana;fontSize=8;align=center;" parent="WGGpqB69vOt5ms05KSNj-37" vertex="1">
          <mxGeometry x="30" y="210" width="100" height="60" as="geometry" />
        </mxCell>
        <mxCell id="WGGpqB69vOt5ms05KSNj-39" value="Test in pausa = 0" style="rounded=1;whiteSpace=wrap;html=1;shadow=0;labelBackgroundColor=none;strokeWidth=1;fontFamily=Verdana;fontSize=8;align=center;" parent="WGGpqB69vOt5ms05KSNj-37" vertex="1">
          <mxGeometry x="30" y="460" width="100" height="60" as="geometry" />
        </mxCell>
        <mxCell id="WGGpqB69vOt5ms05KSNj-40" value="Test in allarme = 0" style="rounded=1;whiteSpace=wrap;html=1;shadow=0;labelBackgroundColor=none;strokeWidth=1;fontFamily=Verdana;fontSize=8;align=center;" parent="WGGpqB69vOt5ms05KSNj-37" vertex="1">
          <mxGeometry x="30" y="375" width="100" height="60" as="geometry" />
        </mxCell>
        <mxCell id="WGGpqB69vOt5ms05KSNj-41" value="Test in corso = 0" style="rounded=1;whiteSpace=wrap;html=1;shadow=0;labelBackgroundColor=none;strokeWidth=1;fontFamily=Verdana;fontSize=8;align=center;" parent="WGGpqB69vOt5ms05KSNj-37" vertex="1">
          <mxGeometry x="30" y="290" width="100" height="60" as="geometry" />
        </mxCell>
        <mxCell id="WGGpqB69vOt5ms05KSNj-42" value="Spina_inserita = 0" style="rounded=1;whiteSpace=wrap;html=1;shadow=0;labelBackgroundColor=none;strokeWidth=1;fontFamily=Verdana;fontSize=8;align=center;" parent="WGGpqB69vOt5ms05KSNj-37" vertex="1">
          <mxGeometry x="30" y="540" width="100" height="60" as="geometry" />
        </mxCell>
        <mxCell id="WGGpqB69vOt5ms05KSNj-43" value="Riposo_OK = 0" style="rounded=1;whiteSpace=wrap;html=1;shadow=0;labelBackgroundColor=none;strokeWidth=1;fontFamily=Verdana;fontSize=8;align=center;" parent="WGGpqB69vOt5ms05KSNj-37" vertex="1">
          <mxGeometry x="30" y="620" width="100" height="60" as="geometry" />
        </mxCell>
        <mxCell id="emUnJWbGVjGWdX6fmiIn-15" value="Condizioni prima di avviare il test" style="shape=note;whiteSpace=wrap;html=1;backgroundOutline=1;darkOpacity=0.05;" vertex="1" parent="WGGpqB69vOt5ms05KSNj-37">
          <mxGeometry x="15" y="50" width="130" height="100" as="geometry" />
        </mxCell>
        <mxCell id="77e6c97f196da883-2" value="Start_button" style="swimlane;html=1;startSize=20;" parent="77e6c97f196da883-1" vertex="1">
          <mxGeometry x="160" y="20" width="160" height="820" as="geometry" />
        </mxCell>
        <mxCell id="emUnJWbGVjGWdX6fmiIn-3" value="Pulsate ui start test" style="shape=note;whiteSpace=wrap;html=1;backgroundOutline=1;darkOpacity=0.05;" vertex="1" parent="77e6c97f196da883-2">
          <mxGeometry x="10" y="50" width="130" height="100" as="geometry" />
        </mxCell>
        <mxCell id="emUnJWbGVjGWdX6fmiIn-31" value="Avvio test" style="swimlane;html=1;startSize=20;whiteSpace=wrap;" vertex="1" parent="77e6c97f196da883-1">
          <mxGeometry x="320" y="20" width="160" height="820" as="geometry" />
        </mxCell>
        <mxCell id="emUnJWbGVjGWdX6fmiIn-34" style="edgeStyle=orthogonalEdgeStyle;rounded=0;orthogonalLoop=1;jettySize=auto;html=1;exitX=0;exitY=0.5;exitDx=0;exitDy=0;entryX=0;entryY=0.5;entryDx=0;entryDy=0;startSize=20;" edge="1" parent="emUnJWbGVjGWdX6fmiIn-31" source="77e6c97f196da883-20" target="emUnJWbGVjGWdX6fmiIn-32">
          <mxGeometry relative="1" as="geometry" />
        </mxCell>
        <mxCell id="emUnJWbGVjGWdX6fmiIn-35" style="edgeStyle=orthogonalEdgeStyle;rounded=0;orthogonalLoop=1;jettySize=auto;html=1;exitX=0.5;exitY=1;exitDx=0;exitDy=0;entryX=0.5;entryY=0;entryDx=0;entryDy=0;startSize=20;" edge="1" parent="emUnJWbGVjGWdX6fmiIn-31" source="77e6c97f196da883-20" target="WGGpqB69vOt5ms05KSNj-36">
          <mxGeometry relative="1" as="geometry" />
        </mxCell>
        <mxCell id="77e6c97f196da883-20" value="check avvio" style="rhombus;whiteSpace=wrap;html=1;rounded=0;shadow=0;labelBackgroundColor=none;strokeWidth=1;fontFamily=Verdana;fontSize=8;align=center;" parent="emUnJWbGVjGWdX6fmiIn-31" vertex="1">
          <mxGeometry x="30" y="190" width="100" height="60" as="geometry" />
        </mxCell>
        <mxCell id="77e6c97f196da883-8" value="&lt;span style=&quot;font-family: &amp;#34;helvetica&amp;#34; ; font-size: 12px ; font-weight: 700&quot;&gt;Inserimento&lt;/span&gt;" style="rounded=1;whiteSpace=wrap;html=1;shadow=0;labelBackgroundColor=none;strokeWidth=1;fontFamily=Verdana;fontSize=8;align=center;fillColor=#f5f5f5;strokeColor=#666666;fontColor=#333333;" parent="emUnJWbGVjGWdX6fmiIn-31" vertex="1">
          <mxGeometry x="30" y="380" width="100" height="60" as="geometry" />
        </mxCell>
        <mxCell id="emUnJWbGVjGWdX6fmiIn-36" style="edgeStyle=orthogonalEdgeStyle;rounded=0;orthogonalLoop=1;jettySize=auto;html=1;exitX=0.5;exitY=1;exitDx=0;exitDy=0;entryX=0.5;entryY=0;entryDx=0;entryDy=0;startSize=20;" edge="1" parent="emUnJWbGVjGWdX6fmiIn-31" source="WGGpqB69vOt5ms05KSNj-36" target="77e6c97f196da883-8">
          <mxGeometry relative="1" as="geometry" />
        </mxCell>
        <mxCell id="WGGpqB69vOt5ms05KSNj-36" value="Test in corso = 1" style="rounded=1;whiteSpace=wrap;html=1;shadow=0;labelBackgroundColor=none;strokeWidth=1;fontFamily=Verdana;fontSize=8;align=center;fillColor=#d5e8d4;strokeColor=#82b366;" parent="emUnJWbGVjGWdX6fmiIn-31" vertex="1">
          <mxGeometry x="30" y="290" width="100" height="60" as="geometry" />
        </mxCell>
        <mxCell id="emUnJWbGVjGWdX6fmiIn-32" value="&lt;span style=&quot;font-family: &amp;#34;helvetica&amp;#34; ; font-size: 12px ; font-weight: 700&quot;&gt;Test fermo&lt;/span&gt;" style="rounded=1;whiteSpace=wrap;html=1;shadow=0;labelBackgroundColor=none;strokeWidth=1;fontFamily=Verdana;fontSize=8;align=center;fillColor=#f5f5f5;strokeColor=#666666;fontColor=#333333;" vertex="1" parent="emUnJWbGVjGWdX6fmiIn-31">
          <mxGeometry x="30" y="490" width="100" height="60" as="geometry" />
        </mxCell>
        <mxCell id="emUnJWbGVjGWdX6fmiIn-38" value="Check condizioni avvio test" style="shape=note;whiteSpace=wrap;html=1;backgroundOutline=1;darkOpacity=0.05;" vertex="1" parent="emUnJWbGVjGWdX6fmiIn-31">
          <mxGeometry x="15" y="50" width="130" height="100" as="geometry" />
        </mxCell>
        <mxCell id="emUnJWbGVjGWdX6fmiIn-33" value="Test fermo" style="swimlane;html=1;startSize=20;whiteSpace=wrap;" vertex="1" parent="77e6c97f196da883-1">
          <mxGeometry x="480" y="20" width="160" height="820" as="geometry" />
        </mxCell>
        <mxCell id="emUnJWbGVjGWdX6fmiIn-37" value="Test Ã¨ fermo, es fail check avvio" style="shape=note;whiteSpace=wrap;html=1;backgroundOutline=1;darkOpacity=0.05;" vertex="1" parent="emUnJWbGVjGWdX6fmiIn-33">
          <mxGeometry x="15" y="50" width="130" height="100" as="geometry" />
        </mxCell>
        <mxCell id="77e6c97f196da883-4" value="Spina_inserita" style="swimlane;html=1;startSize=20;whiteSpace=wrap;" parent="77e6c97f196da883-1" vertex="1">
          <mxGeometry x="640" y="20" width="160" height="820" as="geometry" />
        </mxCell>
        <mxCell id="WGGpqB69vOt5ms05KSNj-2" value="&lt;span style=&quot;font-family: &amp;#34;helvetica&amp;#34; ; font-size: 12px ; font-weight: 700&quot;&gt;Avvio generatore&lt;/span&gt;" style="rounded=1;whiteSpace=wrap;html=1;shadow=0;labelBackgroundColor=none;strokeWidth=1;fontFamily=Verdana;fontSize=8;align=center;fillColor=#f5f5f5;fontColor=#333333;strokeColor=#666666;" parent="77e6c97f196da883-4" vertex="1">
          <mxGeometry x="30" y="320" width="100" height="60" as="geometry" />
        </mxCell>
        <mxCell id="WGGpqB69vOt5ms05KSNj-48" style="edgeStyle=orthogonalEdgeStyle;rounded=0;orthogonalLoop=1;jettySize=auto;html=1;exitX=0.5;exitY=1;exitDx=0;exitDy=0;entryX=0.5;entryY=0;entryDx=0;entryDy=0;" parent="77e6c97f196da883-4" source="WGGpqB69vOt5ms05KSNj-47" target="WGGpqB69vOt5ms05KSNj-2" edge="1">
          <mxGeometry relative="1" as="geometry" />
        </mxCell>
        <mxCell id="WGGpqB69vOt5ms05KSNj-51" style="edgeStyle=orthogonalEdgeStyle;rounded=0;orthogonalLoop=1;jettySize=auto;html=1;exitX=0;exitY=0.5;exitDx=0;exitDy=0;entryX=0;entryY=0.5;entryDx=0;entryDy=0;" parent="77e6c97f196da883-4" source="WGGpqB69vOt5ms05KSNj-47" target="WGGpqB69vOt5ms05KSNj-50" edge="1">
          <mxGeometry relative="1" as="geometry" />
        </mxCell>
        <mxCell id="WGGpqB69vOt5ms05KSNj-47" value="primo ciclo" style="rhombus;whiteSpace=wrap;html=1;rounded=0;shadow=0;labelBackgroundColor=none;strokeWidth=1;fontFamily=Verdana;fontSize=8;align=center;" parent="77e6c97f196da883-4" vertex="1">
          <mxGeometry x="30" y="190" width="100" height="60" as="geometry" />
        </mxCell>
        <mxCell id="WGGpqB69vOt5ms05KSNj-50" value="&lt;span style=&quot;font-family: &amp;#34;helvetica&amp;#34; ; font-size: 12px ; font-weight: 700&quot;&gt;Ripeti ciclo&lt;/span&gt;" style="rounded=1;whiteSpace=wrap;html=1;shadow=0;labelBackgroundColor=none;strokeWidth=1;fontFamily=Verdana;fontSize=8;align=center;fillColor=#f5f5f5;fontColor=#333333;strokeColor=#666666;" parent="77e6c97f196da883-4" vertex="1">
          <mxGeometry x="30" y="430" width="100" height="60" as="geometry" />
        </mxCell>
        <mxCell id="WGGpqB69vOt5ms05KSNj-49" value="YES" style="text;html=1;align=center;verticalAlign=middle;resizable=0;points=[];autosize=1;strokeColor=none;fillColor=none;" parent="77e6c97f196da883-4" vertex="1">
          <mxGeometry x="80" y="270" width="40" height="20" as="geometry" />
        </mxCell>
        <mxCell id="emUnJWbGVjGWdX6fmiIn-2" value="Quando la spina Ã¨ stata inserita" style="shape=note;whiteSpace=wrap;html=1;backgroundOutline=1;darkOpacity=0.05;" vertex="1" parent="77e6c97f196da883-4">
          <mxGeometry x="15" y="50" width="130" height="100" as="geometry" />
        </mxCell>
        <mxCell id="emUnJWbGVjGWdX6fmiIn-16" value="Avvio generatore" style="swimlane;html=1;startSize=20;" vertex="1" parent="77e6c97f196da883-1">
          <mxGeometry x="800" y="20" width="160" height="820" as="geometry" />
        </mxCell>
        <mxCell id="emUnJWbGVjGWdX6fmiIn-17" value="Comando start generatore" style="shape=note;whiteSpace=wrap;html=1;backgroundOutline=1;darkOpacity=0.05;" vertex="1" parent="emUnJWbGVjGWdX6fmiIn-16">
          <mxGeometry x="15" y="50" width="130" height="100" as="geometry" />
        </mxCell>
        <mxCell id="emUnJWbGVjGWdX6fmiIn-18" value="Start generatore" style="rounded=1;whiteSpace=wrap;html=1;shadow=0;labelBackgroundColor=none;strokeWidth=1;fontFamily=Verdana;fontSize=8;align=center;fillColor=#f0a30a;fontColor=#000000;strokeColor=#BD7000;" vertex="1" parent="emUnJWbGVjGWdX6fmiIn-16">
          <mxGeometry x="30" y="210" width="100" height="60" as="geometry" />
        </mxCell>
        <mxCell id="WGGpqB69vOt5ms05KSNj-17" value="Riposo_OK = 0" style="rounded=1;whiteSpace=wrap;html=1;shadow=0;labelBackgroundColor=none;strokeWidth=1;fontFamily=Verdana;fontSize=8;align=center;fillColor=#d5e8d4;strokeColor=#82b366;" parent="emUnJWbGVjGWdX6fmiIn-16" vertex="1">
          <mxGeometry x="30" y="300" width="100" height="60" as="geometry" />
        </mxCell>
        <mxCell id="WGGpqB69vOt5ms05KSNj-58" value="Generatore ON" style="swimlane;html=1;startSize=20;" parent="77e6c97f196da883-1" vertex="1">
          <mxGeometry x="960" y="20" width="160" height="820" as="geometry" />
        </mxCell>
        <mxCell id="WGGpqB69vOt5ms05KSNj-3" value="Start timer ON" style="rounded=1;whiteSpace=wrap;html=1;shadow=0;labelBackgroundColor=none;strokeWidth=1;fontFamily=Verdana;fontSize=8;align=center;" parent="WGGpqB69vOt5ms05KSNj-58" vertex="1">
          <mxGeometry x="25" y="210" width="100" height="60" as="geometry" />
        </mxCell>
        <mxCell id="emUnJWbGVjGWdX6fmiIn-1" value="Feedback generatore corrente ON" style="shape=note;whiteSpace=wrap;html=1;backgroundOutline=1;darkOpacity=0.05;" vertex="1" parent="WGGpqB69vOt5ms05KSNj-58">
          <mxGeometry x="10" y="50" width="130" height="100" as="geometry" />
        </mxCell>
        <mxCell id="77e6c97f196da883-6" value="Fine Timer ON" style="swimlane;html=1;startSize=20;" parent="77e6c97f196da883-1" vertex="1">
          <mxGeometry x="1120" y="20" width="160" height="820" as="geometry" />
        </mxCell>
        <mxCell id="WGGpqB69vOt5ms05KSNj-4" value="Stop generatore" style="rounded=1;whiteSpace=wrap;html=1;shadow=0;labelBackgroundColor=none;strokeWidth=1;fontFamily=Verdana;fontSize=8;align=center;fillColor=#f0a30a;fontColor=#000000;strokeColor=#BD7000;" parent="77e6c97f196da883-6" vertex="1">
          <mxGeometry x="25" y="210" width="100" height="60" as="geometry" />
        </mxCell>
        <mxCell id="emUnJWbGVjGWdX6fmiIn-4" value="Fine tempo corrente ON" style="shape=note;whiteSpace=wrap;html=1;backgroundOutline=1;darkOpacity=0.05;" vertex="1" parent="77e6c97f196da883-6">
          <mxGeometry x="10" y="50" width="130" height="100" as="geometry" />
        </mxCell>
        <mxCell id="77e6c97f196da883-7" value="Generatore OFF" style="swimlane;html=1;startSize=20;" parent="77e6c97f196da883-1" vertex="1">
          <mxGeometry x="1280" y="20" width="160" height="820" as="geometry" />
        </mxCell>
        <mxCell id="WGGpqB69vOt5ms05KSNj-7" value="Start timer OFF" style="rounded=1;whiteSpace=wrap;html=1;shadow=0;labelBackgroundColor=none;strokeWidth=1;fontFamily=Verdana;fontSize=8;align=center;" parent="77e6c97f196da883-7" vertex="1">
          <mxGeometry x="40" y="250" width="100" height="60" as="geometry" />
        </mxCell>
        <mxCell id="WGGpqB69vOt5ms05KSNj-61" value="&lt;span style=&quot;font-family: &amp;#34;helvetica&amp;#34; ; font-size: 12px ; font-weight: 700&quot;&gt;Estrazione&lt;/span&gt;" style="rounded=1;whiteSpace=wrap;html=1;shadow=0;labelBackgroundColor=none;strokeWidth=1;fontFamily=Verdana;fontSize=8;align=center;fillColor=#f5f5f5;strokeColor=#666666;fontColor=#333333;" parent="77e6c97f196da883-7" vertex="1">
          <mxGeometry x="40" y="340" width="100" height="60" as="geometry" />
        </mxCell>
        <mxCell id="emUnJWbGVjGWdX6fmiIn-5" value="Feedback generatore corrente OFF" style="shape=note;whiteSpace=wrap;html=1;backgroundOutline=1;darkOpacity=0.05;" vertex="1" parent="77e6c97f196da883-7">
          <mxGeometry x="15" y="50" width="130" height="100" as="geometry" />
        </mxCell>
        <mxCell id="WGGpqB69vOt5ms05KSNj-11" value="Esegui conteggio" style="swimlane;html=1;startSize=20;" parent="77e6c97f196da883-1" vertex="1">
          <mxGeometry x="1440" y="20" width="160" height="820" as="geometry" />
        </mxCell>
        <mxCell id="WGGpqB69vOt5ms05KSNj-14" value="Start timer spina fuori" style="rounded=1;whiteSpace=wrap;html=1;shadow=0;labelBackgroundColor=none;strokeWidth=1;fontFamily=Verdana;fontSize=8;align=center;" parent="WGGpqB69vOt5ms05KSNj-11" vertex="1">
          <mxGeometry x="30" y="470" width="100" height="60" as="geometry" />
        </mxCell>
        <mxCell id="WGGpqB69vOt5ms05KSNj-18" value="Incremento ciclo" style="rounded=1;whiteSpace=wrap;html=1;shadow=0;labelBackgroundColor=none;strokeWidth=1;fontFamily=Verdana;fontSize=8;align=center;" parent="WGGpqB69vOt5ms05KSNj-11" vertex="1">
          <mxGeometry x="30" y="200" width="100" height="60" as="geometry" />
        </mxCell>
        <mxCell id="WGGpqB69vOt5ms05KSNj-32" style="edgeStyle=orthogonalEdgeStyle;rounded=0;orthogonalLoop=1;jettySize=auto;html=1;exitX=0.5;exitY=1;exitDx=0;exitDy=0;entryX=0.5;entryY=0;entryDx=0;entryDy=0;" parent="WGGpqB69vOt5ms05KSNj-11" source="WGGpqB69vOt5ms05KSNj-19" target="emUnJWbGVjGWdX6fmiIn-23" edge="1">
          <mxGeometry relative="1" as="geometry">
            <mxPoint x="80" y="360" as="targetPoint" />
          </mxGeometry>
        </mxCell>
        <mxCell id="emUnJWbGVjGWdX6fmiIn-22" style="edgeStyle=orthogonalEdgeStyle;rounded=0;orthogonalLoop=1;jettySize=auto;html=1;exitX=0;exitY=0.5;exitDx=0;exitDy=0;entryX=0;entryY=0.5;entryDx=0;entryDy=0;startSize=20;" edge="1" parent="WGGpqB69vOt5ms05KSNj-11" source="WGGpqB69vOt5ms05KSNj-19" target="WGGpqB69vOt5ms05KSNj-14">
          <mxGeometry relative="1" as="geometry" />
        </mxCell>
        <mxCell id="WGGpqB69vOt5ms05KSNj-19" value="cicli finiti" style="rhombus;whiteSpace=wrap;html=1;rounded=0;shadow=0;labelBackgroundColor=none;strokeWidth=1;fontFamily=Verdana;fontSize=8;align=center;" parent="WGGpqB69vOt5ms05KSNj-11" vertex="1">
          <mxGeometry x="30" y="280" width="100" height="60" as="geometry" />
        </mxCell>
        <mxCell id="emUnJWbGVjGWdX6fmiIn-6" value="Logica avanzamento cicli" style="shape=note;whiteSpace=wrap;html=1;backgroundOutline=1;darkOpacity=0.05;" vertex="1" parent="WGGpqB69vOt5ms05KSNj-11">
          <mxGeometry x="15" y="50" width="130" height="100" as="geometry" />
        </mxCell>
        <mxCell id="emUnJWbGVjGWdX6fmiIn-23" value="&lt;span style=&quot;font-family: &amp;#34;helvetica&amp;#34; ; font-size: 12px ; font-weight: 700&quot;&gt;Fine cicli&lt;/span&gt;" style="rounded=1;whiteSpace=wrap;html=1;shadow=0;labelBackgroundColor=none;strokeWidth=1;fontFamily=Verdana;fontSize=8;align=center;fillColor=#f5f5f5;strokeColor=#666666;fontColor=#333333;" vertex="1" parent="WGGpqB69vOt5ms05KSNj-11">
          <mxGeometry x="30" y="370" width="100" height="60" as="geometry" />
        </mxCell>
        <mxCell id="WGGpqB69vOt5ms05KSNj-21" value="Fine cicli" style="swimlane;html=1;startSize=20;" parent="77e6c97f196da883-1" vertex="1">
          <mxGeometry x="1600" y="20" width="160" height="820" as="geometry" />
        </mxCell>
        <mxCell id="WGGpqB69vOt5ms05KSNj-30" value="Stop timer OFF" style="rounded=1;whiteSpace=wrap;html=1;shadow=0;labelBackgroundColor=none;strokeWidth=1;fontFamily=Verdana;fontSize=8;align=center;" parent="WGGpqB69vOt5ms05KSNj-21" vertex="1">
          <mxGeometry x="20" y="220" width="100" height="60" as="geometry" />
        </mxCell>
        <mxCell id="WGGpqB69vOt5ms05KSNj-31" value="Test finito = 1" style="rounded=1;whiteSpace=wrap;html=1;shadow=0;labelBackgroundColor=none;strokeWidth=1;fontFamily=Verdana;fontSize=8;align=center;fillColor=#d5e8d4;strokeColor=#82b366;" parent="WGGpqB69vOt5ms05KSNj-21" vertex="1">
          <mxGeometry x="20" y="310" width="100" height="60" as="geometry" />
        </mxCell>
        <mxCell id="WGGpqB69vOt5ms05KSNj-33" value="Test in corso = 0" style="rounded=1;whiteSpace=wrap;html=1;shadow=0;labelBackgroundColor=none;strokeWidth=1;fontFamily=Verdana;fontSize=8;align=center;fillColor=#d5e8d4;strokeColor=#82b366;" parent="WGGpqB69vOt5ms05KSNj-21" vertex="1">
          <mxGeometry x="20" y="390" width="100" height="60" as="geometry" />
        </mxCell>
        <mxCell id="WGGpqB69vOt5ms05KSNj-34" value="Test in allarme = 0" style="rounded=1;whiteSpace=wrap;html=1;shadow=0;labelBackgroundColor=none;strokeWidth=1;fontFamily=Verdana;fontSize=8;align=center;fillColor=#d5e8d4;strokeColor=#82b366;" parent="WGGpqB69vOt5ms05KSNj-21" vertex="1">
          <mxGeometry x="20" y="475" width="100" height="60" as="geometry" />
        </mxCell>
        <mxCell id="WGGpqB69vOt5ms05KSNj-35" value="Test in pausa = 0" style="rounded=1;whiteSpace=wrap;html=1;shadow=0;labelBackgroundColor=none;strokeWidth=1;fontFamily=Verdana;fontSize=8;align=center;fillColor=#d5e8d4;strokeColor=#82b366;" parent="WGGpqB69vOt5ms05KSNj-21" vertex="1">
          <mxGeometry x="20" y="560" width="100" height="60" as="geometry" />
        </mxCell>
        <mxCell id="emUnJWbGVjGWdX6fmiIn-7" value="Logica fine cicli" style="shape=note;whiteSpace=wrap;html=1;backgroundOutline=1;darkOpacity=0.05;" vertex="1" parent="WGGpqB69vOt5ms05KSNj-21">
          <mxGeometry x="15" y="50" width="130" height="100" as="geometry" />
        </mxCell>
        <mxCell id="WGGpqB69vOt5ms05KSNj-15" value="Fine timer Spina fuori" style="swimlane;html=1;startSize=20;" parent="77e6c97f196da883-1" vertex="1">
          <mxGeometry x="1760" y="20" width="160" height="820" as="geometry" />
        </mxCell>
        <mxCell id="WGGpqB69vOt5ms05KSNj-16" value="Riposo_OK = 1" style="rounded=1;whiteSpace=wrap;html=1;shadow=0;labelBackgroundColor=none;strokeWidth=1;fontFamily=Verdana;fontSize=8;align=center;fillColor=#d5e8d4;strokeColor=#82b366;" parent="WGGpqB69vOt5ms05KSNj-15" vertex="1">
          <mxGeometry x="30" y="220" width="100" height="60" as="geometry" />
        </mxCell>
        <mxCell id="emUnJWbGVjGWdX6fmiIn-8" value="Quando finisce il tempo per cui la spina deve stare fuori" style="shape=note;whiteSpace=wrap;html=1;backgroundOutline=1;darkOpacity=0.05;" vertex="1" parent="WGGpqB69vOt5ms05KSNj-15">
          <mxGeometry x="15" y="50" width="130" height="100" as="geometry" />
        </mxCell>
        <mxCell id="emUnJWbGVjGWdX6fmiIn-20" value="&lt;span style=&quot;font-family: &amp;#34;helvetica&amp;#34; ; font-size: 12px ; font-weight: 700&quot;&gt;Inserimento&lt;/span&gt;" style="rounded=1;whiteSpace=wrap;html=1;shadow=0;labelBackgroundColor=none;strokeWidth=1;fontFamily=Verdana;fontSize=8;align=center;fillColor=#f5f5f5;strokeColor=#666666;fontColor=#333333;" vertex="1" parent="WGGpqB69vOt5ms05KSNj-15">
          <mxGeometry x="30" y="330" width="100" height="60" as="geometry" />
        </mxCell>
        <mxCell id="WGGpqB69vOt5ms05KSNj-54" value="Fine timer OFF" style="swimlane;html=1;startSize=20;" parent="77e6c97f196da883-1" vertex="1">
          <mxGeometry x="1920" y="20" width="160" height="820" as="geometry" />
        </mxCell>
        <mxCell id="emUnJWbGVjGWdX6fmiIn-9" value="Fine tempo OFF corrente" style="shape=note;whiteSpace=wrap;html=1;backgroundOutline=1;darkOpacity=0.05;" vertex="1" parent="WGGpqB69vOt5ms05KSNj-54">
          <mxGeometry x="15" y="50" width="130" height="100" as="geometry" />
        </mxCell>
        <mxCell id="emUnJWbGVjGWdX6fmiIn-24" value="&lt;span style=&quot;font-family: &amp;#34;helvetica&amp;#34; ; font-size: 12px ; font-weight: 700&quot;&gt;Ripeti ciclo&lt;/span&gt;" style="rounded=1;whiteSpace=wrap;html=1;shadow=0;labelBackgroundColor=none;strokeWidth=1;fontFamily=Verdana;fontSize=8;align=center;fillColor=#f5f5f5;strokeColor=#666666;fontColor=#333333;" vertex="1" parent="WGGpqB69vOt5ms05KSNj-54">
          <mxGeometry x="30" y="210" width="100" height="60" as="geometry" />
        </mxCell>
        <mxCell id="WGGpqB69vOt5ms05KSNj-55" value="Ripeti ciclo" style="swimlane;html=1;startSize=20;" parent="77e6c97f196da883-1" vertex="1">
          <mxGeometry x="2080" y="20" width="160" height="820" as="geometry" />
        </mxCell>
        <mxCell id="emUnJWbGVjGWdX6fmiIn-10" value="Logica per ripetere il ciclo" style="shape=note;whiteSpace=wrap;html=1;backgroundOutline=1;darkOpacity=0.05;" vertex="1" parent="WGGpqB69vOt5ms05KSNj-55">
          <mxGeometry x="15" y="50" width="130" height="100" as="geometry" />
        </mxCell>
        <mxCell id="emUnJWbGVjGWdX6fmiIn-28" style="edgeStyle=orthogonalEdgeStyle;rounded=0;orthogonalLoop=1;jettySize=auto;html=1;exitX=0;exitY=0.5;exitDx=0;exitDy=0;entryX=0;entryY=0.5;entryDx=0;entryDy=0;startSize=20;" edge="1" parent="WGGpqB69vOt5ms05KSNj-55" source="emUnJWbGVjGWdX6fmiIn-25" target="emUnJWbGVjGWdX6fmiIn-27">
          <mxGeometry relative="1" as="geometry" />
        </mxCell>
        <mxCell id="emUnJWbGVjGWdX6fmiIn-29" style="edgeStyle=orthogonalEdgeStyle;rounded=0;orthogonalLoop=1;jettySize=auto;html=1;exitX=0.5;exitY=1;exitDx=0;exitDy=0;entryX=0.5;entryY=0;entryDx=0;entryDy=0;startSize=20;" edge="1" parent="WGGpqB69vOt5ms05KSNj-55" source="emUnJWbGVjGWdX6fmiIn-25" target="emUnJWbGVjGWdX6fmiIn-26">
          <mxGeometry relative="1" as="geometry" />
        </mxCell>
        <mxCell id="emUnJWbGVjGWdX6fmiIn-25" value="check OK" style="rhombus;whiteSpace=wrap;html=1;rounded=0;shadow=0;labelBackgroundColor=none;strokeWidth=1;fontFamily=Verdana;fontSize=8;align=center;" vertex="1" parent="WGGpqB69vOt5ms05KSNj-55">
          <mxGeometry x="30" y="220" width="100" height="60" as="geometry" />
        </mxCell>
        <mxCell id="emUnJWbGVjGWdX6fmiIn-26" value="&lt;span style=&quot;font-family: &amp;#34;helvetica&amp;#34; ; font-size: 12px ; font-weight: 700&quot;&gt;Avvio generatore&lt;/span&gt;" style="rounded=1;whiteSpace=wrap;html=1;shadow=0;labelBackgroundColor=none;strokeWidth=1;fontFamily=Verdana;fontSize=8;align=center;fillColor=#f5f5f5;strokeColor=#666666;fontColor=#333333;" vertex="1" parent="WGGpqB69vOt5ms05KSNj-55">
          <mxGeometry x="30" y="320" width="100" height="60" as="geometry" />
        </mxCell>
        <mxCell id="emUnJWbGVjGWdX6fmiIn-27" value="&lt;span style=&quot;font-family: &amp;#34;helvetica&amp;#34; ; font-size: 12px ; font-weight: 700&quot;&gt;Ripeti ciclo&lt;/span&gt;" style="rounded=1;whiteSpace=wrap;html=1;shadow=0;labelBackgroundColor=none;strokeWidth=1;fontFamily=Verdana;fontSize=8;align=center;fillColor=#f5f5f5;strokeColor=#666666;fontColor=#333333;" vertex="1" parent="WGGpqB69vOt5ms05KSNj-55">
          <mxGeometry x="30" y="460" width="100" height="60" as="geometry" />
        </mxCell>
        <mxCell id="WGGpqB69vOt5ms05KSNj-56" value="Inserimento" style="swimlane;html=1;startSize=20;" parent="77e6c97f196da883-1" vertex="1">
          <mxGeometry x="2240" y="20" width="160" height="820" as="geometry" />
        </mxCell>
        <mxCell id="WGGpqB69vOt5ms05KSNj-44" value="Start movimento avanti" style="rounded=1;whiteSpace=wrap;html=1;shadow=0;labelBackgroundColor=none;strokeWidth=1;fontFamily=Verdana;fontSize=8;align=center;fillColor=#f0a30a;fontColor=#000000;strokeColor=#BD7000;" parent="WGGpqB69vOt5ms05KSNj-56" vertex="1">
          <mxGeometry x="30" y="180" width="100" height="60" as="geometry" />
        </mxCell>
        <mxCell id="WGGpqB69vOt5ms05KSNj-45" value="Start timer movimento avanti" style="rounded=1;whiteSpace=wrap;html=1;shadow=0;labelBackgroundColor=none;strokeWidth=1;fontFamily=Verdana;fontSize=8;align=center;" parent="WGGpqB69vOt5ms05KSNj-56" vertex="1">
          <mxGeometry x="30" y="280" width="100" height="60" as="geometry" />
        </mxCell>
        <mxCell id="WGGpqB69vOt5ms05KSNj-46" style="edgeStyle=orthogonalEdgeStyle;rounded=0;orthogonalLoop=1;jettySize=auto;html=1;exitX=0.5;exitY=1;exitDx=0;exitDy=0;entryX=0.5;entryY=0;entryDx=0;entryDy=0;" parent="WGGpqB69vOt5ms05KSNj-56" source="WGGpqB69vOt5ms05KSNj-44" target="WGGpqB69vOt5ms05KSNj-45" edge="1">
          <mxGeometry relative="1" as="geometry" />
        </mxCell>
        <mxCell id="emUnJWbGVjGWdX6fmiIn-11" value="Inserimento spina" style="shape=note;whiteSpace=wrap;html=1;backgroundOutline=1;darkOpacity=0.05;" vertex="1" parent="WGGpqB69vOt5ms05KSNj-56">
          <mxGeometry x="10" y="50" width="130" height="100" as="geometry" />
        </mxCell>
        <mxCell id="WGGpqB69vOt5ms05KSNj-59" value="Estrazione" style="swimlane;html=1;startSize=20;" parent="77e6c97f196da883-1" vertex="1">
          <mxGeometry x="2400" y="20" width="160" height="820" as="geometry" />
        </mxCell>
        <mxCell id="WGGpqB69vOt5ms05KSNj-8" value="Start movimento indietro" style="rounded=1;whiteSpace=wrap;html=1;shadow=0;labelBackgroundColor=none;strokeWidth=1;fontFamily=Verdana;fontSize=8;align=center;fillColor=#f0a30a;fontColor=#000000;strokeColor=#BD7000;" parent="WGGpqB69vOt5ms05KSNj-59" vertex="1">
          <mxGeometry x="40" y="180" width="100" height="60" as="geometry" />
        </mxCell>
        <mxCell id="WGGpqB69vOt5ms05KSNj-9" value="Start timer movimento indietro" style="rounded=1;whiteSpace=wrap;html=1;shadow=0;labelBackgroundColor=none;strokeWidth=1;fontFamily=Verdana;fontSize=8;align=center;" parent="WGGpqB69vOt5ms05KSNj-59" vertex="1">
          <mxGeometry x="40" y="280" width="100" height="60" as="geometry" />
        </mxCell>
        <mxCell id="WGGpqB69vOt5ms05KSNj-10" style="edgeStyle=orthogonalEdgeStyle;rounded=0;orthogonalLoop=1;jettySize=auto;html=1;exitX=0.5;exitY=1;exitDx=0;exitDy=0;entryX=0.5;entryY=0;entryDx=0;entryDy=0;" parent="WGGpqB69vOt5ms05KSNj-59" source="WGGpqB69vOt5ms05KSNj-8" target="WGGpqB69vOt5ms05KSNj-9" edge="1">
          <mxGeometry relative="1" as="geometry" />
        </mxCell>
        <mxCell id="emUnJWbGVjGWdX6fmiIn-12" value="Estrazione spina" style="shape=note;whiteSpace=wrap;html=1;backgroundOutline=1;darkOpacity=0.05;" vertex="1" parent="WGGpqB69vOt5ms05KSNj-59">
          <mxGeometry x="15" y="50" width="130" height="100" as="geometry" />
        </mxCell>
        <mxCell id="WGGpqB69vOt5ms05KSNj-62" value="Fine timer &lt;br style=&quot;font-size: 12px&quot;&gt;movimento indietro" style="swimlane;html=1;startSize=30;whiteSpace=wrap;spacing=2;fontSize=12;" parent="77e6c97f196da883-1" vertex="1">
          <mxGeometry x="2560" y="20" width="170" height="820" as="geometry">
            <mxRectangle x="320" y="20" width="40" height="820" as="alternateBounds" />
          </mxGeometry>
        </mxCell>
        <mxCell id="WGGpqB69vOt5ms05KSNj-63" value="Stop movimento indietro" style="rounded=1;whiteSpace=wrap;html=1;shadow=0;labelBackgroundColor=none;strokeWidth=1;fontFamily=Verdana;fontSize=8;align=center;fillColor=#f0a30a;fontColor=#000000;strokeColor=#BD7000;" parent="WGGpqB69vOt5ms05KSNj-62" vertex="1">
          <mxGeometry x="35" y="180" width="100" height="60" as="geometry" />
        </mxCell>
        <mxCell id="WGGpqB69vOt5ms05KSNj-64" value="Spina_inserita = 0" style="rounded=1;whiteSpace=wrap;html=1;shadow=0;labelBackgroundColor=none;strokeWidth=1;fontFamily=Verdana;fontSize=8;align=center;fillColor=#d5e8d4;strokeColor=#82b366;" parent="WGGpqB69vOt5ms05KSNj-62" vertex="1">
          <mxGeometry x="35" y="260" width="100" height="60" as="geometry" />
        </mxCell>
        <mxCell id="WGGpqB69vOt5ms05KSNj-65" value="finecorsa chiusi,&lt;br&gt;non esistono" style="rhombus;whiteSpace=wrap;html=1;rounded=0;shadow=0;labelBackgroundColor=#FF6666;strokeWidth=1;fontFamily=Verdana;fontSize=8;align=center;" parent="WGGpqB69vOt5ms05KSNj-62" vertex="1">
          <mxGeometry x="35" y="340" width="100" height="60" as="geometry" />
        </mxCell>
        <mxCell id="emUnJWbGVjGWdX6fmiIn-13" value="Fine tempo movimento cilindro indietro" style="shape=note;whiteSpace=wrap;html=1;backgroundOutline=1;darkOpacity=0.05;" vertex="1" parent="WGGpqB69vOt5ms05KSNj-62">
          <mxGeometry x="20" y="50" width="130" height="100" as="geometry" />
        </mxCell>
        <mxCell id="77e6c97f196da883-3" value="Fine timer &lt;br style=&quot;font-size: 12px;&quot;&gt;movimento avanti" style="swimlane;html=1;startSize=30;whiteSpace=wrap;spacing=2;fontSize=12;" parent="77e6c97f196da883-1" vertex="1">
          <mxGeometry x="2730" y="20" width="170" height="820" as="geometry">
            <mxRectangle x="320" y="20" width="40" height="820" as="alternateBounds" />
          </mxGeometry>
        </mxCell>
        <mxCell id="77e6c97f196da883-11" value="Stop movimento avanti" style="rounded=1;whiteSpace=wrap;html=1;shadow=0;labelBackgroundColor=none;strokeWidth=1;fontFamily=Verdana;fontSize=8;align=center;fillColor=#f0a30a;fontColor=#000000;strokeColor=#BD7000;" parent="77e6c97f196da883-3" vertex="1">
          <mxGeometry x="35" y="180" width="100" height="60" as="geometry" />
        </mxCell>
        <mxCell id="IJIA1yr2t6EPNyvtMsXm-1" value="Spina_inserita = 1" style="rounded=1;whiteSpace=wrap;html=1;shadow=0;labelBackgroundColor=none;strokeWidth=1;fontFamily=Verdana;fontSize=8;align=center;fillColor=#d5e8d4;strokeColor=#82b366;" parent="77e6c97f196da883-3" vertex="1">
          <mxGeometry x="35" y="260" width="100" height="60" as="geometry" />
        </mxCell>
        <mxCell id="WGGpqB69vOt5ms05KSNj-1" value="finecorsa chiusi" style="rhombus;whiteSpace=wrap;html=1;rounded=0;shadow=0;labelBackgroundColor=none;strokeWidth=1;fontFamily=Verdana;fontSize=8;align=center;" parent="77e6c97f196da883-3" vertex="1">
          <mxGeometry x="35" y="340" width="100" height="60" as="geometry" />
        </mxCell>
        <mxCell id="emUnJWbGVjGWdX6fmiIn-14" value="Fine tempo movimento cilindro indietro" style="shape=note;whiteSpace=wrap;html=1;backgroundOutline=1;darkOpacity=0.05;" vertex="1" parent="77e6c97f196da883-3">
          <mxGeometry x="20" y="50" width="130" height="100" as="geometry" />
        </mxCell>
        <mxCell id="emUnJWbGVjGWdX6fmiIn-19" value="Uscita Arduino" style="rounded=1;whiteSpace=wrap;html=1;shadow=0;labelBackgroundColor=none;strokeWidth=1;fontFamily=Verdana;fontSize=8;align=center;fillColor=#f0a30a;fontColor=#000000;strokeColor=#BD7000;" vertex="1" parent="1">
          <mxGeometry x="70" y="-150" width="100" height="60" as="geometry" />
        </mxCell>
        <mxCell id="emUnJWbGVjGWdX6fmiIn-21" value="&lt;span style=&quot;font-family: &amp;#34;helvetica&amp;#34; ; font-size: 12px ; font-weight: 700&quot;&gt;Chiamata a fase ciclo&lt;/span&gt;" style="rounded=1;whiteSpace=wrap;html=1;shadow=0;labelBackgroundColor=none;strokeWidth=1;fontFamily=Verdana;fontSize=8;align=center;fillColor=#f5f5f5;strokeColor=#666666;fontColor=#333333;" vertex="1" parent="1">
          <mxGeometry x="230" y="-150" width="100" height="60" as="geometry" />
        </mxCell>
        <mxCell id="emUnJWbGVjGWdX6fmiIn-30" value="Cambio variabile stato fase ciclo" style="rounded=1;whiteSpace=wrap;html=1;shadow=0;labelBackgroundColor=none;strokeWidth=1;fontFamily=Verdana;fontSize=8;align=center;fillColor=#d5e8d4;strokeColor=#82b366;" vertex="1" parent="1">
          <mxGeometry x="400" y="-150" width="100" height="60" as="geometry" />
        </mxCell>
      </root>
    </mxGraphModel>
  </diagram>
</mxfile>
